<svg width="41" height="40" viewBox="0 0 41 40" fill="currentColor" xmlns="http://www.w3.org/2000/svg" class="transition-transform duration-300"><g><path d="M20.4987 24.9167C20.2765 24.9167 20.0681 24.8819 19.8737 24.8125C19.6793 24.7431 19.4987 24.625 19.332 24.4583L11.6654 16.7917C11.3598 16.4861 11.207 16.0972 11.207 15.625C11.207 15.1528 11.3598 14.7639 11.6654 14.4583C11.9709 14.1528 12.3598 14 12.832 14C13.3043 14 13.6931 14.1528 13.9987 14.4583L20.4987 20.9583L26.9987 14.4583C27.3043 14.1528 27.6931 14 28.1654 14C28.6376 14 29.0265 14.1528 29.332 14.4583C29.6376 14.7639 29.7904 15.1528 29.7904 15.625C29.7904 16.0972 29.6376 16.4861 29.332 16.7917L21.6654 24.4583C21.4987 24.625 21.3181 24.7431 21.1237 24.8125C20.9293 24.8819 20.7209 24.9167 20.4987 24.9167Z"></path></g></svg>