<svg xmlns="http://www.w3.org/2000/svg" width="16.67" height="16" viewBox="0 0 25 24" fill="#FFF" class="">
  <g>
    <path d="M5.638 20.686c-.55 0-1.021-.195-1.413-.587a1.926 1.926 0 0 1-.587-1.413v-14c0-.55.196-1.02.587-1.412a1.926 1.926 0 0 1 1.413-.587h6c.283 0 .52.095.712.287.192.192.288.43.288.713s-.096.52-.288.712a.968.968 0 0 1-.712.288h-6v14h14v-6c0-.284.095-.521.287-.713a.968.968 0 0 1 .713-.287c.283 0 .52.095.712.287.192.192.288.43.288.713v6c0 .55-.196 1.02-.588 1.412a1.926 1.926 0 0 1-1.412.587h-14Zm14-14.6-8.6 8.6a.948.948 0 0 1-.7.275.948.948 0 0 1-.7-.274.948.948 0 0 1-.275-.7c0-.284.091-.517.275-.7l8.6-8.6h-2.6a.968.968 0 0 1-.713-.288.967.967 0 0 1-.287-.712c0-.284.095-.521.287-.713a.968.968 0 0 1 .713-.287h6v6c0 .283-.096.52-.288.712a.968.968 0 0 1-.712.288.968.968 0 0 1-.713-.288.967.967 0 0 1-.287-.712v-2.6Z"></path>
  </g>
</svg>