<svg xmlns="http://www.w3.org/2000/svg" xmlns:xlink="http://www.w3.org/1999/xlink" x="0px" y="0px" viewBox="0 0 40 40" style="enable-background:new 0 0 40 40;" xml:space="preserve" fill="rgb(48 103 219)" class=" h-10 w-10" width="24" height="24">
    <style type="text/css">
        .st0{fill-rule:evenodd;clip-rule:evenodd;}
    </style>
    <path class="st0" d="M20.3,3c0,0-0.1,0-0.1,0c0,0,0,0-0.1,0c-0.1,0-0.1,0-0.2,0C10.4,3.2,3,10.7,3,20.3c0,9,7.6,16.7,17.3,16.7
        c9,0,16.7-7.6,16.7-16.7C37,10.6,29.4,3,20.3,3z M14.8,6c-1.6,1.9-2.8,4.7-3.4,8h-5C8,10.3,11,7.4,14.8,6z M6.8,27.1h4.8
        c0.7,2.8,1.9,5.2,3.4,6.9C11.4,32.8,8.5,30.3,6.8,27.1z M19,34.6c-1.3-0.4-2.6-1.6-3.8-3.7c-0.6-1.1-1.1-2.4-1.6-3.8H19V34.6z
        M19,25.1h-5.8c-0.3-1.5-0.5-3.2-0.5-4.9c0-1.5,0.1-3,0.3-4.3h6V25.1z M19,13.9h-5.6c0.4-1.9,1.1-3.6,1.8-5c1.2-2.1,2.5-3.3,3.8-3.8
        V13.9z M35,20.3c0,1.7-0.3,3.3-0.8,4.8h-5.3c0.3-1.5,0.4-3.2,0.4-4.9c0-1.5-0.1-2.9-0.3-4.3h5.4C34.8,17.3,35,18.8,35,20.3z
        M21,15.9h6c0.2,1.4,0.3,2.8,0.3,4.3c0,1.7-0.2,3.4-0.5,4.9H21V15.9z M33.7,13.9h-5c-0.7-3.3-1.9-6.1-3.4-8.1
        C28.9,7.3,32,10.2,33.7,13.9z M21,34.7v-7.6h5.4c-0.4,1.4-0.9,2.7-1.5,3.8C23.6,33.2,22.2,34.3,21,34.7z"></path>
</svg>