<svg xmlns="http://www.w3.org/2000/svg" xmlns:xlink="http://www.w3.org/1999/xlink" x="0px" y="0px" viewBox="0 0 40 40" style="enable-background:new 0 0 40 40;" xml:space="preserve" fill="rgb(48 103 219)" class=" h-10 w-10" width="24" height="24">
<style type="text/css">
	.st0{}
	.st1{fill-rule:evenodd;clip-rule:evenodd;}
</style>
<path class="st0" d="M17.6,31h5.1c0.8,0,1.4,0.6,1.4,1.4v3.1c0,0.8-0.6,1.4-1.4,1.4h-5.1c-0.8,0-1.4-0.6-1.4-1.4v-3.1
	C16.2,31.7,16.8,31,17.6,31z"></path>
<path class="st1" d="M25.7,26.6l-1.1,0.6v3.5c0,0.1-0.1,0.1-0.1,0.1h-8.5c-0.1,0-0.1-0.1-0.1-0.1V27l-1.1-0.6
	c-3.7-1.9-6.1-5.7-6.1-9.8C8.7,10.1,13.8,5,20.4,5c6,0,11.2,5.1,11.2,11.7C31.7,20.9,29.2,24.6,25.7,26.6z M6.7,16.7
	c0,4.9,2.8,9.3,7.1,11.5v2.4c0,1.2,1,2.1,2.1,2.1h0.2v2.8c0,0.8,0.6,1.4,1.4,1.4h5.1c0.8,0,1.4-0.6,1.4-1.4v-2.8h0.3
	c1.2,0,2.1-1,2.1-2.1v-2.3c4.2-2.2,7.1-6.7,7.1-11.6C33.7,9,27.6,3,20.4,3C12.7,3,6.7,9,6.7,16.7z M18.1,35v-2h4v2H18.1z"></path>
</svg>