<svg width="40" height="41" viewBox="0 0 40 41" fill="#FFF" xmlns="http://www.w3.org/2000/svg" class="h-10" w-10="">
    <path d="M14.4768 30.5999H10.3304V17.2469H14.4768V30.5999ZM12.4013 15.4254C11.0754 15.4254 10 14.3272 10 13.0012C10 12.3644 10.253 11.7536 10.7033 11.3032C11.1537 10.8529 11.7645 10.5999 12.4013 10.5999C13.0382 10.5999 13.649 10.8529 14.0993 11.3032C14.5497 11.7536 14.8027 12.3644 14.8027 13.0012C14.8027 14.3272 13.7268 15.4254 12.4013 15.4254ZM29.9955 30.5999H25.858V24.0997C25.858 22.5506 25.8268 20.5639 23.7022 20.5639C21.5464 20.5639 21.2161 22.247 21.2161 23.9881V30.5999H17.0741V17.2469H21.0509V19.0683H21.1089C21.6625 18.0192 23.0147 16.912 25.0321 16.912C29.2286 16.912 30 19.6755 30 23.2649V30.5999H29.9955Z"></path>
</svg>