<svg width="16" height="16" viewBox="0 0 16 16" fill="currentColor" xmlns="http://www.w3.org/2000/svg" class="group-aria-expanded/menu-item:rotate-180 transition-transform duration-300" aria-label="Open menu"><g><path d="M7.9999 10.3335C7.86657 10.3335 7.73324 10.3058 7.5999 10.2502C7.46657 10.1946 7.3499 10.1169 7.2499 10.0169L4.1999 6.96686C3.9999 6.76686 3.8999 6.52242 3.8999 6.23353C3.8999 5.94464 3.9999 5.7002 4.1999 5.5002C4.3999 5.3002 4.64435 5.2002 4.93324 5.2002C5.22212 5.2002 5.46657 5.3002 5.66657 5.5002L7.9999 7.83353L10.3332 5.5002C10.5332 5.3002 10.7777 5.2002 11.0666 5.2002C11.3555 5.2002 11.5999 5.3002 11.7999 5.5002C11.9999 5.7002 12.0999 5.94464 12.0999 6.23353C12.0999 6.52242 11.9999 6.76686 11.7999 6.96686L8.7499 10.0169C8.6499 10.1169 8.53324 10.1946 8.3999 10.2502C8.26657 10.3058 8.13324 10.3335 7.9999 10.3335Z"></path></g></svg>