<svg xmlns="http://www.w3.org/2000/svg" xmlns:xlink="http://www.w3.org/1999/xlink" x="0px" y="0px" viewBox="0 0 40 40" style="enable-background:new 0 0 40 40;" xml:space="preserve" fill="currentColor" class=" h-10 w-10" width="24" height="24">
    <path d="M37,13.7C37.1,13.7,37.2,13.7,37,13.7V9c0-1.7-1.3-3-3-3H6C4.4,6,3,7.3,3,9v4.7c-0.2,0-0.1,0,0,0.1v12.6
	c-0.1,0-0.2,0,0,0.1V31c0,1.7,1.3,3,3,3h28c1.7,0,3-1.3,3-3v-4.6c0.2,0,0.1,0,0-0.1V13.7z M33.4,26.5c-1.9,0-3.4,1.4-3.4,3.2l0,2.3
	H9.9v-2.3c0-1.8-1.5-3.2-3.4-3.2c-0.6,0-1.1,0-1.5,0V13.6c0.4,0,0.9,0,1.5,0c1.9,0,3.4-1.4,3.4-3.2V8h20.1l0,2.4
	c0,1.8,1.5,3.2,3.4,3.2c0.6,0,1.1,0,1.6,0v12.9C34.6,26.5,34.1,26.5,33.4,26.5z M19.9,13.5c-3.6,0-6.5,2.9-6.5,6.5
	c0,3.6,2.9,6.5,6.5,6.5c3.6,0,6.5-2.9,6.5-6.5C26.4,16.4,23.5,13.5,19.9,13.5z M19.9,24.5c-2.5,0-4.5-2-4.5-4.5c0-2.5,2-4.5,4.5-4.5
	s4.5,2,4.5,4.5C24.4,22.5,22.4,24.5,19.9,24.5z"></path>
</svg>