<svg fill="rgb(48 103 219)" class=" h-10 w-10" width="24" height="24" viewBox="0 0 40 40" xmlns="http://www.w3.org/2000/svg">
    <path fill-rule="evenodd" clip-rule="evenodd" d="M17.5816 25.0095H12.8621C12.0728 25.0095 11.433 25.6494 11.433 26.4386V27.5804C11.433 28.3697 12.0728 29.0095 12.8621 29.0095H17.1329C16.8642 28.5329 16.6436 27.8345 16.6436 27.2483C16.6436 26.3086 16.9497 25.6089 17.5816 25.0095Z"></path>
    <path fill-rule="evenodd" clip-rule="evenodd" d="M30.0957 20.1746C29.6721 18.8595 27.828 18.8595 27.4045 20.1746L25.9547 24.6763C25.7653 25.2645 25.2221 25.6627 24.6091 25.6627H19.9177C18.5471 25.6627 17.9772 27.4322 19.0861 28.245L22.8815 31.0273C23.3774 31.3908 23.5849 32.0351 23.3955 32.6232L21.9458 37.1249C21.5222 38.4401 23.0141 39.5337 24.123 38.7209L27.9184 35.9387C28.4143 35.5752 29.0858 35.5752 29.5817 35.9387L33.3772 38.7209C34.486 39.5337 35.9779 38.4401 35.5544 37.1249L34.1046 32.6232C33.9152 32.0351 34.1227 31.3908 34.6186 31.0273L38.4141 28.245C39.5229 27.4322 38.953 25.6627 37.5824 25.6627H32.891C32.278 25.6627 31.7348 25.2645 31.5454 24.6763L30.0957 20.1746ZM28.8846 22.7094C28.8423 22.5779 28.6579 22.5779 28.6155 22.7094L27.0697 27.5094C27.0507 27.5682 26.9964 27.608 26.9351 27.608H21.9328C21.7957 27.608 21.7387 27.785 21.8496 27.8663L25.8966 30.8329C25.9462 30.8692 25.9669 30.9337 25.948 30.9925L24.4022 35.7925C24.3598 35.924 24.509 36.0334 24.6199 35.9521L28.6669 32.9855C28.7165 32.9492 28.7836 32.9492 28.8332 32.9855L32.8802 35.9521C32.9911 36.0334 33.1403 35.924 33.0979 35.7925L31.5521 30.9925C31.5332 30.9337 31.5539 30.8692 31.6035 30.8329L35.6505 27.8663C35.7614 27.785 35.7044 27.608 35.5674 27.608H30.565C30.5037 27.608 30.4494 27.5682 30.4304 27.5094L28.8846 22.7094Z"></path>
    <path fill-rule="evenodd" clip-rule="evenodd" d="M22.8815 31.0273C22.9882 31.1054 23.0815 31.1966 23.1603 31.2973C23.3694 31.5645 23.4773 31.8993 23.4637 32.2395C23.4586 32.3677 23.4362 32.4968 23.3955 32.6232L21.9458 37.1249C21.5222 38.4401 23.0141 39.5337 24.123 38.7209L27.9184 35.9387C28.0251 35.8605 28.1398 35.7992 28.2592 35.7546C28.5756 35.6366 28.9245 35.6366 29.2409 35.7546C29.3603 35.7992 29.4751 35.8605 29.5817 35.9387L33.3772 38.7209C34.486 39.5337 35.9779 38.4401 35.5544 37.1249L34.1046 32.6232C34.0639 32.4968 34.0415 32.3677 34.0364 32.2394C34.0229 31.8993 34.1307 31.5645 34.3398 31.2973C34.4187 31.1966 34.512 31.1054 34.6186 31.0273L38.4141 28.245C39.5229 27.4322 38.953 25.6627 37.5824 25.6627H32.891C32.7592 25.6627 32.6307 25.6443 32.5082 25.6096C32.1834 25.5175 31.901 25.3105 31.7138 25.0273C31.6432 24.9205 31.5861 24.8028 31.5454 24.6763L30.0957 20.1746C29.6721 18.8595 27.828 18.8595 27.4045 20.1746L25.9547 24.6763C25.914 24.8028 25.8569 24.9204 25.7863 25.0273C25.5991 25.3105 25.3168 25.5175 24.9919 25.6096C24.8694 25.6443 24.7409 25.6627 24.6091 25.6627H19.9177C18.5471 25.6627 17.9772 27.4322 19.0861 28.245L22.8815 31.0273ZM28.6998 22.6197C28.6624 22.6335 28.6303 22.6634 28.6155 22.7094L27.0697 27.5094C27.0507 27.5682 26.9964 27.608 26.9351 27.608H21.9328C21.8849 27.608 21.8468 27.6296 21.8222 27.6612C21.801 27.6884 21.7898 27.7231 21.7911 27.7577C21.7926 27.7978 21.8109 27.8379 21.8496 27.8663L25.8966 30.8329C25.9462 30.8692 25.9669 30.9337 25.948 30.9925L24.4022 35.7925C24.3874 35.8384 24.396 35.8817 24.4181 35.915C24.4372 35.9438 24.4664 35.9652 24.4995 35.9747C24.5378 35.9856 24.5812 35.9805 24.6199 35.9521L28.6669 32.9855C28.7165 32.9492 28.7836 32.9492 28.8332 32.9855L32.8802 35.9521C32.919 35.9805 32.9624 35.9856 33.0007 35.9747C33.0337 35.9652 33.0629 35.9438 33.082 35.915C33.1042 35.8817 33.1127 35.8384 33.0979 35.7925L31.5521 30.9925C31.5332 30.9337 31.5539 30.8692 31.6035 30.8329L35.6505 27.8663C35.6893 27.8379 35.7075 27.7978 35.709 27.7577C35.7103 27.7231 35.6992 27.6884 35.6779 27.6612C35.6533 27.6296 35.6152 27.608 35.5674 27.608H30.565C30.5037 27.608 30.4494 27.5682 30.4304 27.5094L28.8846 22.7094C28.8698 22.6634 28.8377 22.6335 28.8004 22.6197C28.7681 22.6077 28.732 22.6077 28.6998 22.6197ZM24.4722 35.747L24.5367 35.8366L24.4722 35.747ZM33.0279 35.747L32.9634 35.8366L33.0279 35.747ZM35.5028 27.6612L35.5674 27.7508L35.5028 27.6612Z"></path>
    <path fill-rule="evenodd" clip-rule="evenodd" d="M14.8696 8.16296C14.5646 8.05637 14.2371 7.99847 13.8962 7.99847C12.2542 7.99847 10.9231 9.34145 10.9231 10.9981C10.9231 12.3806 11.8501 13.5447 13.1112 13.8921C13.0553 13.541 13.0262 13.1808 13.0262 12.8138C13.0262 11.0108 13.7274 9.37304 14.8696 8.16296ZM12.5077 16.6961H14.244C14.5478 17.1308 14.9012 17.5276 15.296 17.8782C11.4852 18.5728 8.3357 21.1856 6.86519 24.69H5.37693C5.15814 24.69 4.98078 24.511 4.98078 24.2903C4.98078 20.0961 8.35071 16.6961 12.5077 16.6961ZM26.1741 18.3629C25.53 18.1302 24.8591 17.9546 24.1672 17.842C24.5456 17.5004 24.8853 17.1159 25.1787 16.6961H27.1655C31.1136 16.6961 34.3517 19.7629 34.6672 23.6642H36.6533C36.3717 19.2547 33.1372 15.6564 28.9242 14.8614C30.0296 13.9447 30.7347 12.5545 30.7347 10.9982C30.7347 8.23785 28.5168 6.00012 25.7808 6.00012C24.7228 6.00012 23.7423 6.33477 22.9375 6.90487C21.9809 6.37211 20.8812 6.06892 19.7113 6.06892C18.5991 6.06892 17.5503 6.34297 16.6277 6.82779C15.8446 6.30465 14.9057 6 13.8962 6C11.1602 6 8.94233 8.23773 8.94233 10.9981C8.94233 12.5541 9.64711 13.9441 10.7522 14.8608C6.33985 15.6918 3 19.5975 3 24.2903C3 25.6147 4.06419 26.6884 5.37693 26.6884H6.23468C6.06211 27.4825 5.97116 28.3074 5.97116 29.1538V30.8185C5.97116 32.4006 7.24234 33.6831 8.81041 33.6831H20.9715L21.3846 32.4002L20.4084 31.6846H8.81041C8.33629 31.6846 7.95194 31.2968 7.95194 30.8185V29.1538C7.95194 23.9292 12.1498 19.6938 17.3282 19.6938H22.345C23.3849 19.6938 24.3853 19.8646 25.3201 20.1799L25.5206 19.5571C25.6711 19.0898 25.8963 18.6918 26.1741 18.3629ZM28.7539 10.9982C28.7539 12.4756 27.6953 13.7035 26.3017 13.952C26.364 13.582 26.3965 13.2017 26.3965 12.8138C26.3965 11.0466 25.7229 9.43818 24.6206 8.23558C24.9771 8.083 25.3692 7.9986 25.7808 7.9986C27.4228 7.9986 28.7539 9.34157 28.7539 10.9982ZM19.7113 17.5601C17.1132 17.5601 15.007 15.4351 15.007 12.8138C15.007 10.1924 17.1132 8.06739 19.7113 8.06739C22.3095 8.06739 24.4157 10.1924 24.4157 12.8138C24.4157 15.4351 22.3095 17.5601 19.7113 17.5601Z"></path>
</svg>