<svg width="24" height="24" viewBox="0 0 24 24" fill="#FFF" xmlns="http://www.w3.org/2000/svg" class="group-open/menu:hidden">
  <g>
    <path d="M10.8626 13.1376H5.9344C5.61518 13.1376 5.34579 13.0279 5.12622 12.8083C4.90666 12.5887 4.79688 12.3193 4.79688 12.0001C4.79688 11.6809 4.90666 11.4116 5.12622 11.192C5.34579 10.9724 5.61518 10.8626 5.9344 10.8626H10.8626V5.9344C10.8626 5.61518 10.9724 5.34579 11.192 5.12623C11.4116 4.90666 11.6809 4.79688 12.0001 4.79688C12.3193 4.79688 12.5887 4.90666 12.8083 5.12623C13.0279 5.34579 13.1376 5.61518 13.1376 5.9344V10.8626H18.0659C18.3851 10.8626 18.6545 10.9724 18.8741 11.192C19.0936 11.4116 19.2034 11.6809 19.2034 12.0001C19.2034 12.3193 19.0936 12.5887 18.8741 12.8083C18.6545 13.0279 18.3851 13.1376 18.0659 13.1376H13.1376V18.0659C13.1376 18.3851 13.0279 18.6545 12.8083 18.8741C12.5887 19.0936 12.3193 19.2034 12.0001 19.2034C11.6809 19.2034 11.4116 19.0936 11.192 18.8741C10.9724 18.6545 10.8626 18.3851 10.8626 18.0659V13.1376Z"></path>
  </g>
</svg>