<svg xmlns="http://www.w3.org/2000/svg" width="24" height="24" viewBox="0 0 24 24" fill="currentColor" class="">
    <g>
        <path d="M12.2491 18.7147C11.8597 18.329 11.8597 17.6998 12.2491 17.3141L16.6057 12.9993L5.00429 12.9993C4.45045 12.9993 4.00146 12.5515 4.00146 11.9993C4.00146 11.447 4.45045 10.9993 5.00429 10.9993L16.6496 10.9993L12.293 6.68431C11.9036 6.29863 11.9036 5.66937 12.293 5.28369C12.6771 4.9032 13.296 4.9032 13.6802 5.28367L19.7079 11.2537C20.0282 11.5709 20.085 12.053 19.8784 12.4287C19.8298 12.5437 19.7583 12.6513 19.6641 12.7447L13.6364 18.7147C13.2522 19.0952 12.6333 19.0952 12.2491 18.7147Z"></path>
    </g>
</svg>