<svg fill="currentColor" class=" h-10 w-10" width="24" height="24" viewBox="0 0 40 40" xmlns="http://www.w3.org/2000/svg">
    <path d="M4.29248 26.5009H35.7705V32.9395H4.29248V26.5009Z"></path>
    <path fill-rule="evenodd" clip-rule="evenodd" d="M18.8965 3.95874C18.8965 3.40646 19.3442 2.95874 19.8965 2.95874C20.4488 2.95874 20.8965 3.40646 20.8965 3.95874V5.95874C20.8965 5.97256 20.8962 5.98632 20.8956 6H34C35.6569 6 37 7.34315 37 9V31C37 32.6569 35.6569 34 34 34H28.4936L29.365 35.7632C29.6097 36.2583 29.4067 36.858 28.9116 37.1027C28.4165 37.3474 27.8167 37.1444 27.572 36.6493L26.2627 34H13.9017L12.5924 36.6493C12.3477 37.1444 11.7479 37.3474 11.2528 37.1027C10.7577 36.858 10.5547 36.2583 10.7994 35.7632L11.6708 34H6C4.34315 34 3 32.6569 3 31V9C3 7.34315 4.34315 6 6 6H18.8973C18.8968 5.98632 18.8965 5.97256 18.8965 5.95874V3.95874ZM6 8H34C34.5523 8 35 8.44772 35 9V31C35 31.5523 34.5523 32 34 32H6C5.44772 32 5 31.5523 5 31V9C5 8.44772 5.44772 8 6 8ZM10.743 17.7565C10.2581 17.6571 9.8934 17.2485 9.84551 16.7628L9.60645 13.725L9.60493 13.7048C9.57997 13.3724 9.70003 13.0544 9.92648 12.8279C10.1598 12.5946 10.4901 12.4745 10.8325 12.5089L13.9371 12.6608C14.4258 12.7099 14.8342 13.0772 14.9337 13.5624C15.0082 13.9257 14.8956 14.2896 14.6467 14.5384L13.8066 15.3921L17.3632 18.7117L20.1228 15.7011C20.7727 14.9922 21.8783 14.9559 22.5732 15.6206L30.2735 22.9861C30.6726 23.3679 30.6867 24.0009 30.305 24.4C29.9232 24.7991 29.2902 24.8132 28.8911 24.4314L21.4008 17.2668L18.6435 20.2747C17.9992 20.9776 16.9054 21.0202 16.2084 20.3696L15.541 19.7467C15.5111 19.7227 15.4821 19.6967 15.4541 19.6687L14.0402 18.346L12.3467 16.7653L11.7141 17.471C11.4665 17.7186 11.1045 17.8307 10.743 17.7565Z"></path>
</svg>