<svg xmlns="http://www.w3.org/2000/svg" xmlns:xlink="http://www.w3.org/1999/xlink" x="0px" y="0px" viewBox="0 0 40 40" style="enable-background:new 0 0 40 40;" xml:space="preserve" fill="rgb(48 103 219)" class=" h-10 w-10" width="24" height="24">
    <style type="text/css">
        .st0{fill-rule:evenodd;clip-rule:evenodd;}
    </style>
    <path class="st0" d="M22.7,20.9c0.6,3.7,3.6,6.5,7.1,6.5c3.6,0,6.5-2.8,7.1-6.5c0.1-0.6-0.3-1.2-0.9-1.4L31.3,8.8h1.1
        c0.6,0,1-0.4,1-1s-0.4-1-1-1H21.1V4c0-0.5-0.4-1-1-1s-1,0.4-1,1v2.9H7.5c-0.6,0-1,0.4-1,1s0.4,1,1,1H9L4,19.5
        c-0.6,0.1-1.1,0.7-1,1.4c0.6,3.7,3.6,6.5,7.1,6.5s6.5-2.8,7.1-6.5c0.1-0.6-0.3-1.2-0.9-1.3L11.7,8.8h7.5v20.3h-6.8
        c-3.5,0-6.3,2.8-6.3,6.2C6,36.3,6.8,37,7.7,37h24.6c0.9,0,1.7-0.7,1.7-1.7c0-3.4-2.8-6.2-6.3-6.2h-6.6V8.8h7.6l-5,10.7
        C23.1,19.7,22.6,20.2,22.7,20.9z M14.2,19.5h-8l4.1-8.7L14.2,19.5z M27.7,31.1c2.3,0,4.1,1.7,4.3,3.9H8c0.2-2.2,2-3.9,4.3-3.9H27.7z
        M30,10.7l3.9,8.7h-8L30,10.7z"></path>
</svg>